<?xml version="1.0"?>
<svg width="156" height="151" xmlns="http://www.w3.org/2000/svg" xmlns:svg="http://www.w3.org/2000/svg" clip-rule="evenodd" fill-rule="evenodd" stroke-linejoin="round" xml:space="preserve">

 <g class="layer">
  <title>Layer 1</title>
  <path d="m75.91,150.2l-0.35,-0.15c-1.64,-0.74 -11.79,-5.24 -22.55,-10.01c-16.06,-7.11 -37.16,-16.62 -51.56,-23.24l-1.45,-0.67l0,-95.53l1.54,0.48c2.28,0.7 6.12,1.9 8.55,2.67l3.03,0.95l0.21,22.4c0.12,13.11 0.22,30.68 0.22,39.05l0,15.22c0,0.8 0.48,1.53 1.22,1.84l61.38,26.27l-0.11,11.08c-0.04,3.87 -0.09,7.35 -0.13,9.64zm79.82,-130.76c0.08,4.99 0.27,19.56 0.27,47.61l0,48.95l-1.1,0.5c-1.25,0.56 -8.13,3.72 -15.29,7.01c-7.14,3.28 -22.03,10.07 -33.07,15.09c-11.05,5.02 -21.88,9.94 -24.07,10.94c-0.46,0.21 -0.93,0.42 -1.38,0.62c-0.04,-2.36 -0.08,-5.96 -0.08,-9.57l0,-11.34l0.83,-0.41c2.57,-1.26 53.52,-24.76 54.5,-25.13l0.77,-0.29c0.77,-0.3 1.29,-1.04 1.29,-1.87l0,-76.78c1.16,-0.34 5.55,-1.69 10.24,-3.15c2.78,-0.87 5.34,-1.66 7.09,-2.18zm-127.89,10.18c3.55,1.02 38.73,11.59 46.03,13.84l2.29,0.7l-0.05,14.86c-0.03,8.99 -0.07,25.73 -0.08,37.2c-0.01,9.3 -0.11,14.97 -0.17,17.72c-4.22,-1.77 -13.38,-5.57 -23.79,-9.86c-11.42,-4.7 -21.19,-8.78 -24.42,-10.18c-0.07,-4.03 -0.09,-17.36 -0.05,-32.99c0.05,-18.41 0.1,-27.09 0.23,-30.96l0.01,-0.33zm96.52,-0.33c0.09,3.97 0.25,13.87 0.25,31.83l0,33.24l-2.28,1.03c-3.25,1.46 -21.34,9.47 -37.16,16.43c-1.53,0.68 -3.07,1.34 -4.29,1.85c0,-5.68 0.02,-18.87 0.05,-34.12l0.09,-35.57l15.43,-5.21c9.24,-3.12 19.76,-6.7 23.39,-7.96c1.58,-0.55 3.25,-1.1 4.52,-1.52zm-46.31,-14.47c0.64,0.15 3.69,0.85 6.39,1.57c19.14,5.13 29.67,7.95 35.15,9.43c-2.24,0.77 -5.32,1.82 -9.4,3.16l-24.04,7.93l-7.68,2.53l-10.37,-3.06c-6.03,-1.78 -17.42,-5.15 -25.31,-7.49c-3.43,-1.01 -6.69,-1.97 -9.34,-2.74c4.8,-1.26 12.7,-3.31 24.79,-6.37c10.03,-2.54 18.56,-4.69 19.81,-4.96zm-0.01,-14.82c2.63,0.59 13.3,3.07 35.8,8.29c14.48,3.37 29.76,6.88 33.94,7.81l1.49,0.34c-1.82,0.58 -4.08,1.28 -6.76,2.1l-6.1,1.85l-13.92,-3.57c-7.95,-2.03 -21.08,-5.4 -29.17,-7.48l-14.7,-3.77a1.99,1.99 0 0 0 -0.97,-0.01l-26.97,6.44c-14.85,3.55 -28.91,6.93 -31.23,7.51l-3.67,0.93l-8.34,-2.6c-0.78,-0.25 -1.53,-0.49 -2.23,-0.72c7.34,-1.75 22.26,-5.23 48.6,-11.37c11.97,-2.79 22.04,-5.17 23.99,-5.68c0.08,-0.02 0.17,-0.05 0.24,-0.07z" fill="#00008b" id="svg_7"/>
 </g>
</svg>